<svg xmlns="http://www.w3.org/2000/svg" viewBox="0 0 128 128"><path fill="#FFC107" d="M116.3 102H11.7A7.6 7.6 0 0 1 4 94.3V33.7c0-4.2 3.5-7.7 7.7-7.7h104.6c4.2 0 7.7 3.5 7.7 7.7v60.6c0 4.2-3.5 7.7-7.7 7.7Z"/><path fill="#424242" d="M4 38.9h120v16H4V39Z"/><path fill="#FFF" d="M114.2 74.1H13.9c-1 0-1.8-.8-1.8-1.8V64c0-1 .8-1.8 1.8-1.8h100.3c1 0 1.8.9 1.8 1.8v8.4c0 1-.8 1.8-1.8 1.8Z"/><path fill="#424242" d="m23 70 .7-1.6.6-1.8q1.3-2.9 3.8-2.5 1.7.3 2.7 2.3 1.4-1.2 3.4-1.9.7-.3 1.3-.1 1 .2 1.8 1.7l2.1 3.2q.5.6.8.7.4 0 1.6-1 1.2-1.4 2-1.7 1.7-.7 4.6.8 1.4.7 2 .8 1.6.3 4-1 1.8-1.1 3-1.4 1-.2 1.6 0 1 .3 2 1.7 1.6 2.3 3 2.3.7 0 2.2-.7l.3-.2q6.2-3 11.5-1 1 .3.7 1.2-.4 1-1.3.6-4.6-1.6-10 1l-.3.2q-2 1-3 .9-2.6 0-4.7-3.1-.6-1-1-1H58q-1 .2-2.5 1.2-3 1.7-5.3 1.3-1-.2-2.6-1-2-1-2.9-.8-.4.2-1.4 1.2-2 2-3.6 1.6-.9-.3-1.7-1.3-1.4-1.7-2.3-3.6l-.5-.7-.3.1q-2 .7-3.2 2.1.5 1.7.5 3.5 0 1-.4 1.5-.7.8-1.8.6-.8-.2-1.3-1-.5-.9-.2-2.3.4-1.5 1-2.6l-.1-.4q-.7-1.6-1.5-1.7-1-.2-1.7 1.4l-.5 1.4-.7 2q-.3.5-.6.6-.3.1-.8-.1-.9-.5-.4-1.4Z"/></svg>