<svg xmlns="http://www.w3.org/2000/svg" width="48" height="48" viewBox="0 0 48 48"><path d="M2.61,2A1.24,1.24,0,0,0,1.33,3.2,1.27,1.27,0,0,0,1.6,4L5.21,8.68A2.91,2.91,0,0,0,5,9.75v7a3,3,0,0,0,3,3H40a3,3,0,0,0,3-3v-7a2.91,2.91,0,0,0-.2-1.07L46.4,4a1.25,1.25,0,0,0-.2-1.76,1.25,1.25,0,0,0-1.78.23L41,6.93a3,3,0,0,0-1-.18H8a3,3,0,0,0-1,.18L3.58,2.49A1.23,1.23,0,0,0,2.61,2ZM8,20.75a2.91,2.91,0,0,0-.6.06A3,3,0,0,0,5,23.72v20a3,3,0,0,0,3,3H40a3,3,0,0,0,3-3v-20a3,3,0,0,0-2.39-2.91,3.08,3.08,0,0,0-.61-.06Z" fill="#263238" fill-opacity="0.4" fill-rule="evenodd"/><path d="M45.41,2.5,41.16,8" fill="#8ab000" stroke="#769616" stroke-linecap="round" stroke-width="2.5" fill-rule="evenodd"/><path d="M45.39,1.25a1.25,1.25,0,0,1,1,.45c-2,2.4-2.37,2.79-5.14,6.22-1,1.32-2.08.63-1.06-.68l4.25-5.5A1.24,1.24,0,0,1,45.39,1.25Z" fill="#fff" fill-opacity="0.3" fill-rule="evenodd"/><path d="M46.38,1.71a1.25,1.25,0,0,1,0,1.55l-4.25,5.5c-1,1.32-1.15-.61-1.15-.61S44.73,3.64,46.38,1.71Z" fill="#263238" fill-opacity="0.2" fill-rule="evenodd"/><path d="M45.66,1.48c.44,0,1,.14.83.8-.11.5-4.66,6.08-4.66,6.08-1,1.31-2.5.67-1.48-.65l4.24-5.47c.26-.29.6-.74,1.07-.76Z" fill="#8ab000" fill-rule="evenodd"/><path d="M2.59,2.5,6.84,8" fill="#8ab000" stroke="#769616" stroke-linecap="round" stroke-width="2.5" fill-rule="evenodd"/><path d="M2.61,1.25a1.25,1.25,0,0,0-1,.45C3.66,4.1,4,4.49,6.77,7.92c1,1.32,2.08.63,1.06-.68L3.58,1.74A1.24,1.24,0,0,0,2.61,1.25Z" fill="#fff" fill-opacity="0.3" fill-rule="evenodd"/><path d="M1.62,1.71a1.25,1.25,0,0,0,0,1.55l4.25,5.5C6.87,10.08,7,8.15,7,8.15S3.27,3.64,1.62,1.71Z" fill="#263238" fill-opacity="0.2" fill-rule="evenodd"/><path d="M2.34,1.48c-.44,0-1,.14-.83.8.11.5,4.66,6.08,4.66,6.08,1,1.31,2.5.67,1.48-.65L3.41,2.24c-.26-.29-.6-.74-1.07-.76Z" fill="#8ab000" fill-rule="evenodd"/><rect x="5" y="6" width="38" height="13" rx="3" fill="#aeea00"/><rect x="5" y="9" width="38" height="10" rx="3" fill="#263238" fill-opacity="0.2"/><rect x="5" y="6" width="38" height="10" rx="3" fill="#fff" fill-opacity="0.3"/><path d="M8,7H40a2.8,2.8,0,0,1,3,2.54v5.92A2.8,2.8,0,0,1,40,18H8a2.8,2.8,0,0,1-3-2.54V9.54A2.8,2.8,0,0,1,8,7Z" fill="#aeea00"/><rect x="5" y="20" width="38" height="26" rx="3" fill="#1976d2"/><rect x="5" y="33" width="38" height="13" rx="3" fill="#263238" fill-opacity="0.2"/><rect x="5" y="20" width="38" height="13" rx="3" fill="#fff" fill-opacity="0.2"/><path d="M8,21H40a2.89,2.89,0,0,1,3,2.77V42.23A2.89,2.89,0,0,1,40,45H8a2.89,2.89,0,0,1-3-2.77V23.77A2.89,2.89,0,0,1,8,21Z" fill="#1976d2"/><path d="M24,26.75a6.26,6.26,0,0,0-6,4.65h3.21a3.24,3.24,0,1,1-.11,3H17.92A6.25,6.25,0,1,0,24,26.75Z" fill="#0d47a1"/><circle cx="24" cy="33" r="9.55" fill="none" stroke="#0d47a1" stroke-linecap="round" stroke-width="1.9"/><ellipse cx="14.38" cy="12.63" rx="3.38" ry="3.87" fill="#263238" fill-opacity="0.2"/><circle cx="14.38" cy="13.13" r="3.37" fill="#fff"/><ellipse cx="33.88" cy="12.63" rx="3.38" ry="3.87" fill="#263238" fill-opacity="0.2"/><circle cx="33.88" cy="13.13" r="3.37" fill="#fff"/></svg>