<svg xmlns="http://www.w3.org/2000/svg" width="48" height="48"><path fill="#263238" fill-opacity=".4" fill-rule="evenodd" d="M2.6 2a1.2 1.2 0 0 0-1.3 1.2 1.3 1.3 0 0 0 .3.8l3.6 4.7a3 3 0 0 0-.2 1v7a3 3 0 0 0 3 3h32a3 3 0 0 0 3-3v-7a3 3 0 0 0-.2-1L46.4 4a1.3 1.3 0 0 0-.2-1.8 1.3 1.3 0 0 0-1.8.3L41 6.9a3 3 0 0 0-1-.2H8A3 3 0 0 0 7 7L3.6 2.5a1.2 1.2 0 0 0-1-.5ZM8 20.8a3 3 0 0 0-.6 0 3 3 0 0 0-2.4 3v20a3 3 0 0 0 3 3h32a3 3 0 0 0 3-3v-20a3 3 0 0 0-2.4-3 3 3 0 0 0-.6 0Z"/><path fill="#8ab000" fill-rule="evenodd" stroke="#769616" stroke-linecap="round" stroke-width="2.5" d="M45.4 2.5 41.2 8"/><path fill="#fff" fill-opacity=".3" fill-rule="evenodd" d="M45.4 1.3a1.3 1.3 0 0 1 1 .4l-5.1 6.2c-1 1.3-2.1.6-1.1-.7l4.2-5.5a1.2 1.2 0 0 1 1-.4Z"/><path fill="#263238" fill-opacity=".2" fill-rule="evenodd" d="M46.4 1.7a1.3 1.3 0 0 1 0 1.6L42 8.8c-.9 1.2-1-.8-1-.8l5.4-6.4Z"/><path fill="#8ab000" fill-rule="evenodd" d="M45.7 1.5c.4 0 1 .1.8.8-.1.5-4.7 6-4.7 6-1 1.4-2.5.7-1.4-.6l4.2-5.5c.3-.3.6-.7 1-.7Z"/><path fill="#8ab000" fill-rule="evenodd" stroke="#769616" stroke-linecap="round" stroke-width="2.5" d="M2.6 2.5 6.8 8"/><path fill="#fff" fill-opacity=".3" fill-rule="evenodd" d="M2.6 1.3a1.3 1.3 0 0 0-1 .4l5.2 6.2c1 1.3 2 .6 1-.7L3.6 1.7a1.2 1.2 0 0 0-1-.4Z"/><path fill="#263238" fill-opacity=".2" fill-rule="evenodd" d="M1.6 1.7a1.3 1.3 0 0 0 0 1.6L6 8.8C6.9 10 7 8 7 8L1.6 1.8Z"/><path fill="#8ab000" fill-rule="evenodd" d="M2.3 1.5c-.4 0-1 .1-.8.8.1.5 4.7 6 4.7 6 1 1.4 2.5.7 1.4-.6L3.5 2.2c-.2-.2-.6-.7-1-.7Z"/><rect width="38" height="13" x="5" y="6" fill="#aeea00" rx="3"/><rect width="38" height="10" x="5" y="9" fill="#263238" fill-opacity=".2" rx="3"/><rect width="38" height="10" x="5" y="6" fill="#fff" fill-opacity=".3" rx="3"/><path fill="#aeea00" d="M8 7h32a2.8 2.8 0 0 1 3 2.5v6a2.8 2.8 0 0 1-3 2.5H8a2.8 2.8 0 0 1-3-2.5v-6A2.8 2.8 0 0 1 8 7Z"/><rect width="38" height="26" x="5" y="20" fill="#1976d2" rx="3"/><rect width="38" height="13" x="5" y="33" fill="#263238" fill-opacity=".2" rx="3"/><rect width="38" height="13" x="5" y="20" fill="#fff" fill-opacity=".2" rx="3"/><path fill="#1976d2" d="M8 21h32a2.9 2.9 0 0 1 3 2.8v18.4a2.9 2.9 0 0 1-3 2.8H8a2.9 2.9 0 0 1-3-2.8V23.8A2.9 2.9 0 0 1 8 21Z"/><path fill="#0d47a1" d="M24 26.8a6.3 6.3 0 0 0-6 4.6h3.2a3.2 3.2 0 1 1-.1 3h-3.2a6.3 6.3 0 1 0 6.1-7.6Z"/><circle cx="24" cy="33" r="9.6" fill="none" stroke="#0d47a1" stroke-linecap="round" stroke-width="1.9"/><ellipse cx="14.4" cy="12.6" fill="#263238" fill-opacity=".2" rx="3.4" ry="3.9"/><circle cx="14.4" cy="13.1" r="3.4" fill="#fff"/><ellipse cx="33.9" cy="12.6" fill="#263238" fill-opacity=".2" rx="3.4" ry="3.9"/><circle cx="33.9" cy="13.1" r="3.4" fill="#fff"/></svg>