<svg xmlns="http://www.w3.org/2000/svg" width="32" height="32" fill="none"><path fill="#24292E" fill-rule="evenodd" d="M16 0a16 16 0 0 0-5 31.2c.7.1 1-.4 1-.8v-3c-4 .8-5-1-5.4-1.8-.1-.5-1-2-1.6-2.3-.6-.3-1.4-1 0-1 1.2 0 2.1 1.1 2.4 1.6 1.5 2.4 3.8 1.7 4.7 1.3.1-1 .6-1.7 1-2.1-3.5-.4-7.3-1.8-7.3-8 0-1.7.7-3.1 1.7-4.2-.2-.4-.7-2 .1-4.3 0 0 1.4-.4 4.4 1.7a14.8 14.8 0 0 1 8 0c3.1-2.1 4.4-1.7 4.4-1.7 1 2.2.4 3.9.2 4.3a6 6 0 0 1 1.6 4.3c0 6.1-3.7 7.5-7.3 7.9.6.5 1.1 1.4 1.1 3v4.3c0 .4.3 1 1.1.8A16 16 0 0 0 16 0Z" clip-rule="evenodd"/></svg>