<svg xmlns="http://www.w3.org/2000/svg" xml:space="preserve" viewBox="0 0 128 128"><radialGradient id="a" cx="65" cy="5" r="105.9" gradientUnits="userSpaceOnUse"><stop offset=".2" stop-color="#01b3f7"/><stop offset=".5" stop-color="#01b3f7"/></radialGradient><path fill="url(#a)" d="M113.3 28.6c-15-21-39.4-23-49.3-23.2-9.5-.1-29.7 3-44.4 18.2A56.4 56.4 0 0 0 3.6 65a57.9 57.9 0 0 0 14.3 37.8 60 60 0 0 0 46.4 20.5h1c13.2-.3 36-4.1 49.5-26.3a61 61 0 0 0-1.5-68.4zm3.9 31.3h-11.5a77.5 77.5 0 0 0-3.8-21.4h8.8a52.1 52.1 0 0 1 6.5 21.4zM10.8 67.6h12c.5 6.8 1.6 14.2 4 21.6H17a49.3 49.3 0 0 1-6.2-21.6zm57-55.9a43 43 0 0 1 21.4 18.8H67.8V11.6zm-7 .3v18.4h-22c8.2-13 20-17.6 22-18.4zm0 26.4v21.3H30.6a61 61 0 0 1 4.1-21.3h26.1zM22.5 59.6H11c.7-7.7 3.1-14.9 7-21.3h8c-2 6-3.4 13-3.5 21.3zm8.3 8 30 .1v21.5H35a76 76 0 0 1-4.3-21.5zm30 29.6v19.2c-4-1.3-14.6-5.9-22.1-19.2h22.1zm6.9 19.3.1-19.3H90a35.9 35.9 0 0 1-22.3 19.3zm.1-27.3V67.7l29.6.1a72.8 72.8 0 0 1-3.8 21.4H67.8zm0-29.5V38.4l25.4.1a66.2 66.2 0 0 1 4.2 21.3H67.8zm37.5-29.2h-6.7a57 57 0 0 0-8-12 47 47 0 0 1 14.7 12zM37.5 19c-2.8 3-5.5 6.7-8 11.3h-5.8L26 28a53 53 0 0 1 11.6-9zm-14 79.2-.9-1h7.3c2.2 4.5 5 8.7 8.4 12.6a53.7 53.7 0 0 1-14.9-11.6zm67 12.1c3-3.6 6.7-8 8.8-13.1h6.5c-4 5-10.3 10.3-15.3 13.1zM111 89.2h-8.7a84.8 84.8 0 0 0 3.4-21.4h11.5a54 54 0 0 1-6.2 21.4z"/><path fill="#188aff" d="m93.7 39.8-25.9-.1v-2.5l24.9.1zm-32.9-.1-26.6-.1 1-2.5 25.6.1zm0 29.3-30-.1-.2-2.5 30.2.1zm36.6 0H67.8v-2.5l29.7.1zm19.7.1h-11.5l.1-2.5h11.6zm-5.8-29.4-9 .1-.8-2.4h8.6zM60.8 98.4H39.4L38 96.1l22.9-.2zm28.6-.1-21.6.1v-2.5l22.9.1zm-58.9.1-6.8.1-2-2.3h7.8zm-7.6-29.5h-12l-.2-2.6 12.1.1zm2.7-29.3-8.4-.1 1.4-2.4h7.9zm79.1 58.9-6-.1 1.1-2.3h6.9zM38.8 30.3c.3-.4 3.5-7.6 9.7-12.8 6.3-5.3 12.1-7 12.4-7v2.7c-.1 0-5.3 1.3-11.2 6-7 5.7-10.8 11-10.9 11.1zm50.4.2s-2.5-4.5-9.4-10.1a59.5 59.5 0 0 0-12-7.4v-2.6c.4.1 7 3 12.6 8a33.1 33.1 0 0 1 8.8 12v.1zm16.1 0s-3.4-3.1-7-6c-3.5-2.8-6-4-6-4l-2.6-3.1c.2.1 5.9 3 9.4 6 3.6 3 6 6.8 6.1 7v.1zm-81.6-.2v-.1c.2-.1 2.2-3.2 5.6-6.5 4.2-3.9 9-5.7 9-5.8l-2.2 2.6s-1.8.7-6.2 4.2c-3.4 2.8-6.1 5.6-6.2 5.6z"/><path fill="#188aff" d="M64.1 124.5c-41 0-54.6-34.4-54.8-34.7l.1.2a61 61 0 0 0 54.7 32h.1c21.2 0 34.5-8.8 41.9-16.2 8-8 12.3-15.5 12.3-15.6 0 .3-11.9 34.3-54.2 34.3z"/></svg>