<svg xmlns="http://www.w3.org/2000/svg" xmlns:xlink="http://www.w3.org/1999/xlink" viewBox="0 0 128 128"><linearGradient id="a"><stop offset=".1" stop-color="#9e9e9e"/><stop offset=".5" stop-color="#849298"/><stop offset=".7" stop-color="#7a8d96"/><stop offset=".9" stop-color="#505e64"/></linearGradient><linearGradient xlink:href="#a" id="c" x1="55.9" x2="55.9" y1="30" y2="127.6" gradientUnits="userSpaceOnUse"/><linearGradient id="d" x1="42" x2="42" y1="8.8" y2="29.2" gradientUnits="userSpaceOnUse"><stop offset="0" stop-color="#757575" stop-opacity="0"/><stop offset=".8" stop-color="#757575"/><stop offset="1" stop-color="#757575" stop-opacity="0"/></linearGradient><linearGradient id="b"><stop offset=".2" stop-color="#bdbdbd"/><stop offset="1" stop-color="#6e818a"/></linearGradient><linearGradient xlink:href="#b" id="e" x1="83.6" x2="52.5" y1="19.5" y2="158.5" gradientUnits="userSpaceOnUse"/><linearGradient xlink:href="#a" id="f" x1="55.9" x2="55.9" y1="99.9" y2="136.1" gradientUnits="userSpaceOnUse"/><linearGradient xlink:href="#b" id="g" x1="72.1" x2="72.1" y1="104.2" y2="138.3" gradientUnits="userSpaceOnUse"/><path fill="url(#c)" d="M35.4 21A27 27 0 0 1 50.5 5.3c2.2-.8 23-1.2 23-1.2s2.3 7 6.4 17c1.3 3.3 3.3 5.6 7.6 6.3a3 3 0 0 1 2.5 3V114H21.8V30.4c0-1.7 1.2-3 2.6-3 7.4-.5 9.6-2.9 11-6.3z"/><path fill="url(#d)" d="M44.6 8.6a29 29 0 0 0-9.3 12.5c-1.3 3.4-3.5 5.8-10.9 6.2-.6 0-1.2.4-1.7.8h38.7V8.6z"/><path fill="url(#e)" d="M51.2 21c4-10 12.5-17 22.3-17S91.8 11 96 21c1.3 3.3 3.3 5.6 7.6 6.3a3 3 0 0 1 2.4 3V114H37.7V30.4c0-1.7 1.1-3 2.6-3 7.4-.5 9.5-2.9 11-6.3z"/><path fill="#bdbdbd" d="M37.7 34a811.8 811.8 0 0 1 .9 57.3 407 407 0 0 1-.9 19.1c-.5-6.4-.7-12.7-.9-19a761 761 0 0 1 .9-57.4z"/><path fill="#e0e0e0" d="M73.5 4c-3.4.9-6.5 2.3-9.2 4.3a35.5 35.5 0 0 0-8.9 8.8l-1.3 2.2c-1 1.5-1.9 3-3 4.4l-.8 1.1-1 1c-.9.5-1.7 1-2.6 1.2a12 12 0 0 1-5.3.3c1.7-.2 3.4-.6 5-1.3l2-1.3a6 6 0 0 0 1.4-2l2.5-4.4c.8-1.4 1.7-3.1 2.8-4.6 2.2-2.9 5-5.2 8.2-7C66.4 4.9 70 3.8 73.5 4z"/><g fill="#777"><path d="m92.6 41.4-3.3-.2-2.7.1c-1.7 0-3.4-.7-5.2-.7-2.2 0-4.4 1.1-6.7 1-1.3-.2-2.5-.7-3.8-.7-1.2 0-2.4.5-3.7.6-2 0-4.1-1-6.2-.8-1 .2-2 .7-3 1-2 .3-4.3-.7-4.3-2.9 0-1.5 1.2-2.7 2.7-2.7h3.3c1.5-.1 3-.4 4.5-.3 1.1.1 2.3.5 3.4.4.8 0 1.5-.4 2.2-.6a8 8 0 0 1 3.5-.1c1 .2 2.1.6 3.2.6 1.5.1 2.9-.5 4.3-.5 1.2 0 2.4.4 3.6.5 1 0 2.2-.2 3.3-.4 2.3-.3 7.6-.3 7.6 3.1 0 2-1.2 2.5-2.7 2.6zM69.1 66.9c-1.1 0-2.4-.4-3.5-.2-.6 0-1.3.3-2 .3l-1.8.1c-2.4 0-8 1-8-2.9 0-1 .8-2.2 1.8-2.5 1.2-.4 3.1.2 4.4.4l1.8.2c2.5 0 10-2.8 10 2 0 1-.7 2.2-1.8 2.5h-.9zm23.3.1c-.8 0-1.6-.4-2.5-.5-.8 0-1.6.4-2.3.6-2 .5-4-.3-6 0-1.3.3-2 .4-3-.4-.8-.7-1.5-1.3-1.5-2.5s1-2.3 2.1-2.6c1.6-.4 2.4.4 3.8.7.9.2 1.7-.2 2.5-.4 1.1-.3 2.3-.3 3.4 0l1.1.1c1.4.1 2.4-.8 3.6-.2 1 .5 1.6 1.4 1.6 2.4 0 1.2-.8 2.3-1.9 2.6a3 3 0 0 1-.9.1zm-6.1-12.9c-1.6.1-3.5-.4-4.7-.4-1.4-.1-2.8.4-4.2.6-2.3.2-4.5-.4-6.8-.4-2.6 0-10.7 2.5-10.7-2.4 0-3 2.8-2.4 4.7-2 2 .4 3.9-.6 5.8-.4 1 0 2 .5 3.1.6 2 .2 3.8-.7 5.7-.7l1.8.2c1 0 2 0 2.9-.2.8-.1 1.7-.5 2.5-.4 1.4.2 2.6 1.5 2.6 3 0 1.9-1.1 2.5-2.7 2.6z" opacity=".6"/><path d="M93.6 61.8c-1.2-.6-2.3.3-3.6.2l-1.1-.2a7.9 7.9 0 0 0-3.4.1c-.8.2-1.6.6-2.5.4-1.5-.3-2.2-1.1-3.8-.7a3 3 0 0 0-2 1.7l1-.4c1.6-.4 2.4.4 3.8.7.9.2 1.7-.2 2.5-.4 1.1-.3 2.3-.3 3.4-.1l1.1.2c1.4 0 2.4-.8 3.6-.2 1 .4 1.6 1.4 1.6 2.4l-.2 1c.7-.5 1.1-1.4 1.1-2.3 0-1-.6-2-1.5-2.4zm-31.8.5c-.6 0-1.2 0-1.8-.2-1.3-.1-3.2-.8-4.4-.4-.8.2-1.3.9-1.6 1.6l.6-.3c1.2-.4 3.1.2 4.4.4l1.8.2c2.5 0 10-2.9 10 2 0 .2 0 .6-.2 1a3 3 0 0 0 1.2-2.4c0-4.7-7.5-1.9-10-1.9zm24.6-13.7c-.8-.1-1.7.3-2.5.4-1 .2-2 .3-2.8.2l-1.8-.2c-2 0-3.8.9-5.8.7l-3-.6c-2-.2-4 .8-5.9.4-1.7-.3-4.1-.9-4.6 1.2 1-.4 2.4-.1 3.6.1 2 .4 4-.6 5.9-.4 1 0 2 .5 3 .6 2 .2 3.8-.7 5.8-.7l1.8.2c1 0 1.9 0 2.8-.2.8-.1 1.7-.5 2.5-.4 1.4.2 2.7 1.5 2.7 3 0 .3 0 .6-.2.9.7-.4 1.2-1 1.2-2.3 0-1.4-1.3-2.7-2.7-2.9zm1.3-12.9c-1.1.2-2.2.4-3.3.4-1.2 0-2.4-.5-3.6-.5-1.4 0-2.8.6-4.3.5-1 0-2.1-.4-3.2-.6a7.9 7.9 0 0 0-3.5.1c-.7.2-1.4.5-2.2.6-1.1.1-2.3-.3-3.4-.4-1.5-.1-3 .2-4.5.3h-3.3c-1.2 0-2.2.8-2.6 1.8a3 3 0 0 1 1.6-.5h3.3c1.5-.1 3-.4 4.5-.3 1.1.1 2.3.5 3.4.4.8-.1 1.5-.4 2.2-.6a8 8 0 0 1 3.5-.1c1.1.2 2.1.6 3.2.6 1.5.1 2.9-.5 4.3-.5 1.2 0 2.4.4 3.6.5 1 0 2.2-.3 3.3-.4 2.3-.3 7.6-.3 7.6 3.1v.9c.6-.4 1-1 1-2.2 0-3.3-5.3-3.3-7.6-3z"/></g><path fill="url(#f)" d="M93.3 124H18.6a2 2 0 0 1-2-2v-13.3c0-1.1.9-2 2-2h74.7a2 2 0 0 1 2 2V122a2 2 0 0 1-2 2.1z"/><path fill="url(#g)" d="M109.6 124h-75c-1 0-2-.8-2-1.9v-13.6c0-1 1-1.8 2-1.8h75c1 0 1.9.8 1.9 1.8v13.7c0 1-.9 1.8-1.9 1.8z"/><path fill="#e0e0e0" d="M32.7 108.8c0-.9.4-1.8 1.3-2.1.4-.2.9-.2 1.3-.3h1.3l5-.3a686.6 686.6 0 0 1 50.7-.3l10.2.3 5 .3h1.3c.4 0 1 0 1.3.3a2 2 0 0 1 1.3 2 2 2 0 0 0-1.4-1.7c-.4-.2-.7-.1-1.2 0h-1.2l-5.1.2a686.6 686.6 0 0 1-50.7.3l-10.2-.3-5-.2h-1.3c-.4-.1-.8-.2-1.2 0a2 2 0 0 0-1.4 1.8z"/></svg>