<svg xmlns="http://www.w3.org/2000/svg" viewBox="0 0 128 128"><path fill="#F44336" d="M94 9C72 9 64 31.4 64 31.4S56 9 34 9C17.4 9-1.5 22 5.5 52c7 29.8 58.6 67 58.6 67s51.4-37.2 58.4-67c7-30-10.6-43-28.5-43Z"/><path fill="#C33" d="M30.6 11.2c17.3 0 25.8 18.5 28.5 26 .4 1 2 1 2.4 0l2.5-5.9A30.6 30.6 0 0 0 34 9c-6.9 0-14.2 2.3-19.8 7 5-3.2 10.9-4.8 16.4-4.8ZM94 9c-5.3 0-10.1 1-14 3.4 2.7-1 6-1.2 9.2-1.2 16.2 0 30.7 12.3 24.1 40.7-5.6 24.4-38.4 54-48.5 65.3-.6.7-.8 1.8-.8 1.8s51.4-37.2 58.4-67C129.5 22 111.9 9 94 9Z"/><path fill="#FF8A80" d="M17 24.8c3.8-4.7 10.5-8.5 16.2-4 3 2.3 1.7 7.3-1 9.4-4 3-7.5 4.8-10 9.6a29 29 0 0 0-2.8 9.2 1.3 1.3 0 0 1-2.4.4c-4.2-7.4-5.4-17.8 0-24.6Zm60.2 9.9c-1.8 0-3-1.7-2.4-3.4 1.2-3 2.7-6 4.6-8.5 2.7-3.9 8-6.1 11.2-3.8 3.4 2.4 3 7.2.6 9.5-5 4.9-11.5 6.2-14 6.2Z"/></svg>