<svg xmlns="http://www.w3.org/2000/svg" xml:space="preserve" viewBox="0 0 128 128"><path fill="#fff" d="M100.4 123.8H6.8A2.8 2.8 0 0 1 4 121V7c0-1.5 1.2-2.8 2.8-2.8h93.6c1.5 0 2.8 1.3 2.8 2.8v114c0 1.5-1.3 2.8-2.8 2.8z"/><path fill="#6fbff0" d="M99.2 8.2v111.6H8V8.2h91.2m1.2-4H6.8A2.8 2.8 0 0 0 4 7v114c0 1.5 1.3 2.8 2.8 2.8h93.6c1.5 0 2.8-1.3 2.8-2.8V7c0-1.5-1.3-2.8-2.8-2.8z"/><path fill="none" stroke="#b0bec5" stroke-linecap="round" stroke-miterlimit="10" stroke-width="3.1" d="M17.3 24.8c2-1 4.4 0 6.7 0 2.5.1 5-1 7.4-.9 2.5.2 4.8 1.5 7.2 1.7 3.1.3 6-1.3 9.1-1.7 4.4-.5 8.9 1.3 13.2.3M17.3 43.3c1.7-.5 3.5-.5 5.3 0 1.6.4 3.2 1.2 4.9 1.2 2.1 0 4.1-1.2 6.2-1.6 5-1 10.4 2.4 15.3.8m15.1-.2c3-1 6.1.2 9.2.3 1.5 0 2.9-.2 4.3-.4l5.5-.7M17.4 58.5c2.3-.4 4.6-.8 6.8-.3 1.3.3 2.5.8 3.8.8 1.5 0 2.9-.6 4.3-1 1.9-.4 4-.3 5.8.5m14.2.5s1.8-1.5 6.7-.5c2.6.5 5.2 1 7.8.5l3-.9A15 15 0 0 1 73 58l5.5.1M16.9 74.5c3-2 7.2.3 10.8-.4 1.6-.3 3-1.3 4.7-1.6 2-.4 4.1.3 6.2.5 1.2.2 2.5.2 3.8.2h4c4.5 0 9 0 13.5-1M16.2 89c2.3-.9 4.7-1.8 7.1-1.4 2.4.4 4.5 1.9 6.8 1.6 1-.1 1.9-.6 2.8-.9 2-.7 4-1.1 6.2-1m27.4 2c1.3-1.4 3.5-1.5 5.4-1.3 1.9.3 3.8 1 5.7.6 1.2-.2 2.3-.8 3.4-1 2.5-.4 5.3.8 7.6-.3m-72.3 21.4c1.4-1.5 3.9-1.4 5.9-.8s4 1.5 6 1.3c1.9-.2 3.5-1.3 5.3-1.5 2-.2 4 .5 5.8 1 2.7.6 5.5.8 8.2.5"/><path fill="#6fbff0" d="M103.3 50.6 57.4 89.4c-1 1-10.1 18.4-10.1 18.4-.8 1.9 1 3.8 3 3.3 0 0 23.6-7.2 24.3-7.7l28.6-23.7.1-29z" opacity=".3"/><path fill="#ffecb3" d="m45.6 107.7 2.5-13.1 1.7-9.1c.4-2.3.3-3.3 1.4-4.7l7.3-10.4 22.4 15.8-7.4 10.4c-.6.9-1.8 1.7-4 2.8l-7.9 4.7-11.5 6.8a3 3 0 0 1-4.5-3.2z"/><path fill="none" d="M72.7 93.8zM54.1 80.6l-.1.2v-.2h.1z"/><path fill="#616161" d="m50 110.9 9.6-5.7s-4.2.5-7.6-1.8-4.3-6.6-4.3-6.6l-2 11a3 3 0 0 0 4.4 3z"/><path fill="#ffc107" d="M103.2 40.5 94 34 56.7 87s-.3 4 2.5 6 6.6.5 6.6.5l37.4-53z"/><path fill="#ffa000" d="M109.8 45.1 73.5 96.7c-6.8 2.8-7.6-3.4-7.6-3.4l37.3-52.8 6.6 4.6z"/><path fill="#fdd835" d="M94 34 56.9 87s-8.1 1.4-5.6-6.2l36.2-51.4 6.7 4.7z"/><path fill="#4e342e" d="M87.4 29.3s5.2 5.4 9.2 8.2a67.3 67.3 0 0 0 13.2 7.6l-1 1.6A37.3 37.3 0 0 1 86.3 31l1.1-1.8z" opacity=".2"/><path fill="#f19534" d="m56.9 88.5-.2-1.5h-1.3l37.8-53.6 1.7 1.2z"/><path fill="#d1762c" d="m65.8 93.5-1.5.4 37.1-52.7 1.7 1.2-36.8 52.2z"/><path fill="#ef5350" d="m93 21.4 6.6 13.8 15.8 2 7.6-10.5c1.9-2.7 1.7-7-5.6-12.2l-4.4-3c-6.3-4.5-10.5-3.3-12.4-.6L93 21.4z"/><path fill="#94d1e0" d="M112.2 44.5c-.3.5-.9.8-1.5.8 0 0-6.5-.8-13.6-5.9a34.3 34.3 0 0 1-10.2-10.6 2 2 0 0 1 .2-1.7l5.3-7.6c.3-.3.6-.5 1-.5h.4c.5 0 1 .3 1.2.7a44.6 44.6 0 0 0 21.7 15c.5 0 1 .4 1.1.9.2.4.1.8-.1 1.2l-5.5 7.7z"/><ellipse cx="113.9" cy="15.7" fill="#ff8383" rx="3.4" ry="11.4" transform="rotate(-54.8 114 15.7)"/><path fill="#b9e4ea" d="M94.1 25.2a25 25 0 0 0 13.3 8.9c.3 0 1 0 1.1-.3.1-.2 0-.8-.7-1-2.6-1.2-5.6-3.1-9.6-6.7s-5-6-5.7-5.3c-.5.5 1 3.6 1.6 4.4zm4.9 7.3c1 .6-.2 2.3-3.8.5a10.3 10.3 0 0 1-5.5-6.4c0-.4-.1-1.2.2-1.5 1-.9 1.4.8 3.5 3 1.7 1.8 3.5 3.2 5.6 4.4z"/></svg>