<svg xmlns="http://www.w3.org/2000/svg" data-name="Layer 1" viewBox="0 0 3756.1 3756.5"><path fill="#fff" d="M3756 1878c0 1037.3-840.7 1878.1-1878 1878.1S0 2915.3 0 1878.1 840.8 0 1878 0s1878 840.8 1878 1878Z"/><path fill="#f26822" d="M1878 0C841.1 0-1 842 .2 1878a1883 1883 0 0 0 95.4 593.1h561.9V891.3L1878 2111.8 3098.6 891.2v1580h562c62-186.5 95-385.9 95.3-593.2C3757.7 841 2915 .2 1878 .2Z" data-name="149931032"/><path fill="#4d4d4d" d="m1597.3 2392.4-532.6-532.7V2854H273c329.7 540.8 925.4 902.6 1605 902.6s1275.3-361.8 1605-902.7h-791.8v-994l-532.7 532.6L1878 2673l-280.6-280.6Z" data-name="149931160"/></svg>