<svg xmlns="http://www.w3.org/2000/svg" xml:space="preserve" viewBox="0 0 512 512"><path fill="#002c8a" d="M420.1 159.6 153.9 450.1H56.3c-6.8 0-12.2-6.8-10.8-13.6l65.1-412.2a19 19 0 0 1 19-16.3H295c113.8 4.1 145 62.4 124.7 151.9l.4-.3z"/><path fill="#009be1" d="M424.4 132.8c40.7 21.7 50.2 62.4 36.6 116.6-17.6 80-70.5 113.9-147.8 115.3l-21.7 1.4c-8.1 0-13.6 5.4-14.9 13.6l-17.6 107a19 19 0 0 1-19 16.3h-81.4c-6.8 0-12.2-6.8-10.8-13.6l29.8-193.9c1.4-6.8 246.8-162.7 246.8-162.7z"/><path fill="#001f6b" d="m176 305 27.1-172.2a19 19 0 0 1 17.6-14.9h130.2c31.2 0 54.2 5.4 73.2 14.9-6.8 59.7-35.3 155.9-173.6 158.6h-59.7c-6.7 0-13.4 5.5-14.8 13.6z"/></svg>