<svg xmlns="http://www.w3.org/2000/svg" viewBox="0 0 128 128"><defs><radialGradient id="a" cx="63.6" cy="62.9" r="57" gradientUnits="userSpaceOnUse"><stop offset=".5" stop-color="#FDE030"/><stop offset=".9" stop-color="#F7C02B"/><stop offset="1" stop-color="#F4A223"/></radialGradient></defs><path fill="url(#a)" d="M63.6 118.8c-27.9 0-58-17.5-58-55.9S35.7 7 63.6 7c15.5 0 29.8 5.1 40.4 14.4a53.7 53.7 0 0 1 17.6 41.5c0 16.9-6.1 31.2-17.6 41.4a61.1 61.1 0 0 1-40.4 14.5Z"/><path fill="#EB8F00" d="M111.5 29.7a56.7 56.7 0 0 1 8.1 30.2c0 16.9-6.1 31.2-17.6 41.4a61.1 61.1 0 0 1-40.4 14.5 59 59 0 0 1-48.2-23 58 58 0 0 0 50.2 26c15.4 0 29.8-5.2 40.4-14.5a53.5 53.5 0 0 0 17.6-41.4 56 56 0 0 0-10.1-33.2Z"/><path fill="#422B0D" d="M64 101a20 20 0 0 1-16.5-9.8 4.6 4.6 0 0 1-.3-3.9A2 2 0 0 1 49 86c.3 0 .5 0 .8.2 4.3 1.6 8 4.1 14.3 4.1 6.1 0 10-2.5 14.2-4.1l.8-.2a2 2 0 0 1 1.8 1.3c.4 1.3.3 2.7-.4 4A20 20 0 0 1 64 101ZM49.5 54.4l-.2.2-.5.5-.7.5a14 14 0 0 1-3.6 2L43 58h-3l-1.5-.4a11.6 11.6 0 0 1-2.6-1.3 13 13 0 0 1-1.7-1.3l-.6-.6-.2-.2a3.5 3.5 0 0 0-4.6-.2c-1 .8-1.3 2.1-.8 3.3l.2.3.4.8a13.8 13.8 0 0 0 6.6 5.7c1 .4 2 .8 3 1l1.7.3h1.6c1.2 0 2.3-.1 3.4-.3a16.8 16.8 0 0 0 5.5-2.4 14 14 0 0 0 3.2-3l.5-.8.4-.6.4-.8.1-.2c.6-1.4 0-3-1.5-3.7h-.3a3.3 3.3 0 0 0-3.6.8Zm45 0-.2.2-.5.5-.7.5a14 14 0 0 1-3.6 2L88 58h-3l-1.5-.4a11.6 11.6 0 0 1-2.6-1.3 13 13 0 0 1-1.7-1.3l-.6-.6-.2-.2a3.5 3.5 0 0 0-4.6-.2c-1 .8-1.3 2.1-.8 3.3l.2.3.4.8a13.8 13.8 0 0 0 6.6 5.7c1 .4 2 .8 3 1l1.8.3h1.6l3.3-.3a16.2 16.2 0 0 0 5.6-2.4 14 14 0 0 0 3.2-3l.5-.8.4-.6.4-.8.1-.2a2.8 2.8 0 0 0-1.8-3.8 3.6 3.6 0 0 0-3.7.9ZM28.4 43.3c-.7.7-1.8.7-2.6 0a2 2 0 0 1-.2-2.4 21 21 0 0 1 18.8-8.4c2.5.3 2 3.5-.2 3.7-6 .4-11.5 3-15.8 7m70.1.1c.7.7 1.9.7 2.6 0 .7-.6.7-1.6.2-2.4a21 21 0 0 0-18.8-8.4c-2.5.3-2 3.5.2 3.7 6 .4 11.5 3 15.8 7"/></svg>