<svg xmlns="http://www.w3.org/2000/svg" xml:space="preserve" viewBox="0 0 128 128"><path fill="#543930" d="M96.8 69.7c-1.4-2-.2-4.2 2-7.2a23 23 0 0 0 1.3-23.9L99 37h-1.6a3177.8 3177.8 0 0 0-72.7 9l-2.2 2a23 23 0 0 0 7.1 23c2.8 2.3 4.5 4.2 3.6 6.4-.8 2.1-4 2.8-4 2.8s1 2 2.9 2.9c1.8.8 3.9.8 5.3.7 0 0 6.6 7 21.2 5.2l8.1-1 8.1-1c14.6-1.7 19.3-10.2 19.3-10.2a10 10 0 0 0 5-2c1.7-1.2 2.2-3.4 2.2-3.4s-3.3.1-4.6-1.8z"/><radialGradient id="a" cx="102.8" cy="71.5" r="21.4" gradientTransform="matrix(.9926 -.1212 .0595 .4876 -27.7 51.6)" gradientUnits="userSpaceOnUse"><stop offset=".7" stop-color="#6d4c41" stop-opacity="0"/><stop offset="1" stop-color="#6d4c41"/></radialGradient><path fill="url(#a)" d="m66.8 88-1-8.6 25.7-5.2 2.7 2.6S89.5 85.3 74.9 87l-8 1z"/><radialGradient id="b" cx="81.6" cy="74.7" r="6.3" gradientTransform="matrix(-.8477 .5304 -.3935 -.6289 197.7 72)" gradientUnits="userSpaceOnUse"><stop offset=".7" stop-color="#6d4c41"/><stop offset="1" stop-color="#6d4c41" stop-opacity="0"/></radialGradient><path fill="url(#b)" d="M93.7 73c-4.6-5.4 3.7-8.6 3.7-8.6-1.2 2-1.7 3.7-.6 5.2 1.3 2 4.6 1.8 4.6 1.8s-4 4.5-7.7 1.7z"/><radialGradient id="c" cx="98.1" cy="92.6" r="27.8" gradientTransform="matrix(-.1949 -.9808 .8175 -.1624 24 163.7)" gradientUnits="userSpaceOnUse"><stop offset=".7" stop-color="#6d4c41" stop-opacity="0"/><stop offset="1" stop-color="#6d4c41"/></radialGradient><path fill="url(#c)" d="M100.1 38.6c5 9 2.1 19.1-1.2 23.7-.4.6-2.4 3-2.7 4.9 0 0-10.1-11-13.6-17.9C82 48 81.3 46.5 81 45a6 6 0 0 1 .4-3.6c.6-1.2 18.1-3.7 18.1-3.7l.6 1z"/><radialGradient id="d" cx="44.1" cy="92.6" r="27.8" gradientTransform="matrix(-.0467 -.9989 -.8325 .039 124 97.3)" gradientUnits="userSpaceOnUse"><stop offset=".7" stop-color="#6d4c41" stop-opacity="0"/><stop offset="1" stop-color="#6d4c41"/></radialGradient><path fill="url(#d)" d="M22.6 48a23.5 23.5 0 0 0 6.9 22.8c.6.5 3 2.4 3.8 4 0 0 7.2-13.1 8.9-20.5.3-1.5.6-3 .5-4.6a6 6 0 0 0-1.2-3.4c-1-1-1.8-.6-3.2-.5-2.6.3-14.2 1-15 1.2l-.7 1z"/><radialGradient id="e" cx="48.8" cy="71.5" r="21.4" gradientTransform="matrix(-.9926 .1212 .0595 .4876 96.2 36.5)" gradientUnits="userSpaceOnUse"><stop offset=".7" stop-color="#6d4c41" stop-opacity="0"/><stop offset="1" stop-color="#6d4c41"/></radialGradient><path fill="url(#e)" d="m66.8 88-1-8.6-26.2 1.1-2 3.2s6.5 7 21.1 5.3l8.1-1z"/><radialGradient id="f" cx="27.7" cy="74.7" r="6.3" gradientTransform="matrix(.9504 .311 .2307 -.7051 -12.8 120.7)" gradientUnits="userSpaceOnUse"><stop offset=".7" stop-color="#6d4c41"/><stop offset="1" stop-color="#6d4c41" stop-opacity="0"/></radialGradient><path fill="url(#f)" d="M37.2 80c3.1-6.4-5.8-7.5-5.8-7.5 1.8 1.6 2.6 3.2 2 4.9-.9 2.1-4.1 2.8-4.1 2.8s5 3.4 7.9-.2z"/><linearGradient id="g" x1="16.4" x2="16.4" y1="54.5" y2="84.7" gradientTransform="matrix(1 0 0 -1 0 128)" gradientUnits="userSpaceOnUse"><stop offset=".5" stop-color="#ffca28"/><stop offset="1" stop-color="#ffb300"/></linearGradient><path fill="url(#g)" d="M26.3 62.4a38 38 0 0 1-6.1-5.7c-1-1-2.8-2.8-4.7-2.6-.4 0-.9.1-1.3.5a45 45 0 0 1-5.7-10c-.6-1.2-1.6-1.4-2.3-1.2-1.3.4-2 2-1.9 3.8.6 5.9 5.2 13 7 14.7A19.8 19.8 0 0 1 15 72.3c0 .5.3.9.8 1l9.5 1.5h.2a1 1 0 0 0 1-.6c.5-1.9 2-6.3 2-7.3a5 5 0 0 0-2.2-4.4z"/><linearGradient id="h" x1="111.8" x2="111.8" y1="55.2" y2="84.2" gradientTransform="matrix(1 0 0 -1 0 128)" gradientUnits="userSpaceOnUse"><stop offset=".5" stop-color="#ffca28"/><stop offset="1" stop-color="#ffb300"/></linearGradient><path fill="url(#h)" d="M122 43.5c-.6-.3-1.7 0-2.3 1.3a45.2 45.2 0 0 1-5.7 9.8 2 2 0 0 0-1.3-.5c-1.9-.2-3.7 1.6-4.7 2.6-1.9 2.1-3.9 4-6 5.7a5 5 0 0 0-2.3 4.4c0 1 1.5 5.4 2.1 7.3.1.4.5.7 1 .7h.1l9.5-1.6c.5-.1.9-.6.9-1.1 0 0-.4-5.4 3.7-10.1a34 34 0 0 0 7-14.8c.2-1.8-.6-3.4-2-3.8z"/><linearGradient id="i" x1="64.1" x2="64.1" y1="46" y2=".6" gradientTransform="matrix(1 0 0 -1 0 128)" gradientUnits="userSpaceOnUse"><stop offset="0" stop-color="#f78c1f"/><stop offset=".5" stop-color="#f47f12"/><stop offset="1" stop-color="#ef6c00"/></linearGradient><path fill="url(#i)" d="M115.7 111c.2 7.2-5.5 13-12.7 13a10 10 0 0 1-3.9-.8 9.8 9.8 0 0 1-5.5-7.4v-.1 8.3h-59v-8.4c-.5 3.3-2.6 6-5.5 7.4a9 9 0 0 1-4 .9c-7.1 0-12.9-5.8-12.7-13l.1-40.5c0-.8.6-1.5 1.4-1.5l12.9-.8c.8 0 1.5.6 1.6 1.4l2.7 19c4.2-3.6 10-6.2 17.9-6.2l30.2.1c7.9 0 13.7 2.6 17.8 6.2l2.7-19c.1-.8.8-1.3 1.6-1.3l12.9.7c.8 0 1.4.7 1.4 1.5l.1 40.6z"/><path fill="#da6727" d="M99 123.1a9.8 9.8 0 0 1-5.5-7.4l-.3-10.7s.6 9.2 5.8 18.1zM35 105l-.5 10.6c-.4 3.3-2.5 6-5.4 7.4 5.2-9 5.8-18 5.8-18z"/><path fill="#e59600" d="M55 78.3v10c0 4.5 3.5 8.2 9 8.2s9-3.7 9-8.2v-10H55zm31.5-34.5-49.7 6c-5.4.7-9.2 5.9-8.5 11.6.7 5.7 5.6 9.8 11 9.2l49.7-6c5.4-.7 9.2-6 8.5-11.6-.7-5.7-5.7-9.9-11-9.2z"/><path fill="#ffca28" d="M57.3 11c-15.9 2-28.5 20.6-25.5 45 3 24.2 19.5 34.4 35 32.5s29-15.7 26-40S73.1 9.2 57.3 11z"/><path fill="#795548" d="M71 75.7c.3 2.8-2.2 3.6-5.2 3.8-3 .3-5.6-.2-5.8-3-.2-2.8 2.1-4.7 5.2-5 3-.2 5.6 1.3 5.8 4.2z"/><path fill="#e59600" d="M67.1 62.4a1 1 0 0 0-.3 0l-6.4.7a1 1 0 0 0-.3.2c-.6.3-.8 1-.5 1.5.4.6 1.9 2.3 4.5 2a4.6 4.6 0 0 0 3.8-3c.2-.7-.2-1.2-.8-1.4z"/><g fill="#404040"><ellipse cx="47.5" cy="56.5" rx="4.5" ry="4.7" transform="rotate(-6.9 47.5 56.4)"/><ellipse cx="77.3" cy="52.9" rx="4.5" ry="4.7" transform="rotate(-6.9 77.3 52.9)"/></g><path fill="#6d4c41" d="M53.2 47.4c-1-1-3.2-2.5-7-2-3.8.4-5.6 2.3-6.3 3.5-.3.6-.1 1.1.2 1.5.2.3 1 .5 1.7.1s2.2-1.3 4.8-1.7c2.6-.2 4.2.4 5 .5.9.2 1.6-.2 1.8-.5.2-.4.2-1-.2-1.4zM83 43.8c-1-1-3.2-2.4-7-2-3.8.5-5.6 2.3-6.3 3.6-.3.5-.1 1 .1 1.4.3.3 1 .5 1.8.1.8-.3 2.2-1.3 4.8-1.6 2.6-.3 4.2.3 5 .5.9.1 1.6-.3 1.8-.6.2-.4.2-1-.3-1.4z"/><path fill="#543930" d="M95.4 19.3c-2.6-3-8.1-7-12.6-6.7-1.3-4.2-6.3-7.3-11-8.2a28.4 28.4 0 0 0-23.7 5.7c-.8.6-6 4.4-10.3 2.7-2.6-1.1-3-5-3-5s-7.4 4-3.8 11.9a9 9 0 0 0-7.4 6c-1.6 4.6-.4 8.3.5 10-2 2.2-4.5 6.7-1.8 11.8 2 3.9 8.1 5 8.1 5a34 34 0 0 0 3.3 13.4c.2.3.7.2.7-.1.5-3.7 2-16.7 1.4-18.9 0 0 10-3.3 19-11.7 1.9-1.7 3.9-3.2 6-4.4 11.8-6.5 15.4 1.6 15.4 1.6s8.4-2.7 12.4 8.9c1.5 4.3 3 11.4 4.2 16.3.1.4.6.4.7 0 .6-2 1.9-6.2 1.8-10.2 0-1.5 3.5-3.8 4.4-10a25.5 25.5 0 0 0-4.3-18z"/><radialGradient id="j" cx="78.6" cy="107.3" r="32.6" gradientTransform="matrix(.4206 .9072 .6731 -.3121 -28 .2)" gradientUnits="userSpaceOnUse"><stop offset=".7" stop-color="#6d4c41" stop-opacity="0"/><stop offset="1" stop-color="#6d4c41"/></radialGradient><path fill="url(#j)" d="M95.3 47.4c0-1.5 3.5-3.8 4.4-10l.2-2c.5-7.6-2.7-14-4.5-16a19 19 0 0 0-11.6-6.8h-1s.5 2-.1 3.6c-.8 2.1-2.8 2.9-2.8 2.9C92 28.6 92.4 37.8 95.3 47.4z"/><radialGradient id="k" cx="46.8" cy="142.9" r="8.6" gradientTransform="matrix(.9321 .3623 .4296 -1.1051 -63.5 147.6)" gradientUnits="userSpaceOnUse"><stop offset=".6" stop-color="#6d4c41"/><stop offset="1" stop-color="#6d4c41" stop-opacity="0"/></radialGradient><path fill="url(#k)" d="m50.6 8.4-2.5 1.7c-.8.6-6 4.4-10.3 2.7-2.6-1.1-3-4.8-3-5-1 1.6-3 12.2 6.9 11.7 4.3-.2 6.4-4.3 7.6-7.6l1.3-3.5z"/><radialGradient id="l" cx="139.5" cy="52.6" r="26.3" gradientTransform="matrix(-.9787 -.2779 -.1526 .551 207 29.5)" gradientUnits="userSpaceOnUse"><stop offset=".7" stop-color="#6d4c41" stop-opacity="0"/><stop offset="1" stop-color="#6d4c41"/></radialGradient><path fill="url(#l)" d="M70.6 4.2c6.9 1 10.5 4 12.2 8.4.4 1.3 2.3 13.6-23 2.4-9.5-4.1-7.5-7.7-6.5-8.2 3.9-2 9.6-3.7 17.3-2.6z"/><radialGradient id="m" cx="43.4" cy="135.1" r="7.9" gradientTransform="matrix(.9926 -.1212 -.1482 -1.2143 16 184)" gradientUnits="userSpaceOnUse"><stop offset=".7" stop-color="#6d4c41" stop-opacity="0"/><stop offset="1" stop-color="#6d4c41"/></radialGradient><path fill="url(#m)" d="M34.8 7.9h-.1c-.8.5-7 4.3-3.6 11.8l7.2.2c-7-5.6-3.5-12-3.5-12z"/><radialGradient id="n" cx="42.3" cy="121.2" r="14.7" gradientTransform="matrix(-.99 -.1409 -.1319 .9265 97.5 -77.7)" gradientUnits="userSpaceOnUse"><stop offset=".7" stop-color="#6d4c41" stop-opacity="0"/><stop offset="1" stop-color="#6d4c41"/></radialGradient><path fill="url(#n)" d="m35.5 19.8-4.5-.2-1 .3a8.8 8.8 0 0 0-6.4 5.7 13 13 0 0 0 .5 10s1.9-2.3 7-3l4.4-12.8z"/><radialGradient id="o" cx="38.8" cy="107" r="15.5" gradientTransform="matrix(.9999 .0153 .0215 -1.4051 -3.2 193)" gradientUnits="userSpaceOnUse"><stop offset=".6" stop-color="#6d4c41" stop-opacity="0"/><stop offset="1" stop-color="#6d4c41"/></radialGradient><path fill="url(#o)" d="M23.9 35.9a10 10 0 0 0-1.5 11.8c2 3.8 8 4.8 8 4.8s1.2.2 1.8.1l-1-20a13 13 0 0 0-7 2.9l-.3.4z"/></svg>