<?xml version="1.0" encoding="utf-8"?>
<!-- Generator: Adobe Illustrator 26.3.1, SVG Export Plug-In . SVG Version: 6.00 Build 0)  -->
<svg version="1.1" id="Layer_1" xmlns="http://www.w3.org/2000/svg" xmlns:xlink="http://www.w3.org/1999/xlink" x="0px" y="0px"
	 viewBox="0 0 11 11" style="enable-background:new 0 0 11 11;" xml:space="preserve">
<style type="text/css">
	.st0{fill:#4C4AF1;}
</style>
<path class="st0" d="M10.1,7.4C10,6.5,9.6,5.6,9.1,4.9C8.5,4.2,7.7,3.6,6.9,3.3C6,2.9,5.1,2.8,4.2,3C3.3,3.1,2.4,3.5,1.7,4.1
	C1.3,4.4-1,7.8,0.5,8.1C1,8,1.2,7.4,1.9,7.5c0.4,0,0.9,0.1,1.2,0.4c0.6,0.4,1.3-0.6,2-0.4C5.7,7.4,6.4,8.4,7,7.9
	c0.3-0.2,0.7-0.4,1.1-0.3c0.5,0,1,0.2,1.4,0.5c0.1,0,0.2,0,0.3,0C9.8,8.1,9.9,8,10,7.9c0.1-0.1,0.1-0.2,0.1-0.3
	C10.2,7.6,10.1,7.5,10.1,7.4z M7.6,4.9c0.5,0.5,0.9,1,1.1,1.6C8,6.4,7.2,6.5,6.6,6.9C6.1,6.6,5.6,6.5,5,6.5S4,6.6,3.5,6.9
	C2.9,6.5,2.1,6.4,1.4,6.5C2.2,4,5.7,3.2,7.6,4.9z"/>
</svg>
