<svg xmlns="http://www.w3.org/2000/svg" data-name="Layer 1" viewBox="0 0 339.4 295.3"><path fill="#50af95" fill-rule="evenodd" d="M62.1 1.4.4 131.4a2.5 2.5 0 0 0 .5 3L168 294.6a2.5 2.5 0 0 0 3.6 0l167.1-160.2a2.5 2.5 0 0 0 .6-3l-62-130A2.5 2.5 0 0 0 275 0H64.4a2.5 2.5 0 0 0-2.3 1.4Z"/><path fill="#fff" fill-rule="evenodd" d="M191.2 144.8c-1.2 0-7.4.5-21.2.5-11 0-18.8-.4-21.6-.5-42.5-1.9-74.2-9.3-74.2-18.1s31.7-16.3 74.2-18.2v29a320.2 320.2 0 0 0 42.8 0v-29c42.4 2 74 9.3 74 18.2s-31.6 16.2-74 18Zm0-39.3V79.8h59.2V40.2H89.2v39.5h59.2v25.8c-48.1 2.3-84.3 11.8-84.3 23.2s36.2 21 84.3 23.2v82.9h42.8v-83c48-2.2 84.1-11.7 84.1-23.1s-36-21-84.1-23.2Zm0 0Z"/></svg>